<?xml version="1.0" encoding="UTF-8"?>
<svg id="Layer_2" data-name="Layer 2" xmlns="http://www.w3.org/2000/svg" xmlns:xlink="http://www.w3.org/1999/xlink" viewBox="0 0 236.52 229">
  <defs>
    <style>
      .cls-1 {
        fill: url(#linear-gradient-12);
      }

      .cls-1, .cls-2, .cls-3, .cls-4, .cls-5, .cls-6, .cls-7, .cls-8, .cls-9, .cls-10, .cls-11, .cls-12, .cls-13, .cls-14, .cls-15, .cls-16, .cls-17, .cls-18, .cls-19, .cls-20, .cls-21, .cls-22, .cls-23, .cls-24 {
        stroke-width: 0px;
      }

      .cls-25 {
        opacity: .83;
      }

      .cls-2 {
        fill: url(#linear-gradient-17);
      }

      .cls-3 {
        fill: url(#linear-gradient-19);
      }

      .cls-4 {
        fill: url(#linear-gradient);
      }

      .cls-5 {
        fill: url(#linear-gradient-21);
      }

      .cls-6 {
        fill: url(#linear-gradient-6);
      }

      .cls-7 {
        fill: url(#linear-gradient-15);
      }

      .cls-8 {
        fill: url(#linear-gradient-11);
      }

      .cls-9 {
        fill: url(#linear-gradient-5);
      }

      .cls-10 {
        fill: #b74247;
      }

      .cls-11 {
        fill: url(#linear-gradient-13);
      }

      .cls-12 {
        fill: url(#linear-gradient-16);
      }

      .cls-13 {
        fill: url(#linear-gradient-22);
      }

      .cls-14 {
        fill: url(#linear-gradient-20);
      }

      .cls-15 {
        fill: url(#linear-gradient-14);
      }

      .cls-16 {
        fill: url(#linear-gradient-2);
      }

      .cls-17 {
        fill: url(#linear-gradient-7);
      }

      .cls-18 {
        fill: url(#linear-gradient-3);
      }

      .cls-19 {
        fill: url(#linear-gradient-9);
      }

      .cls-20 {
        fill: #043753;
      }

      .cls-21 {
        fill: url(#linear-gradient-8);
      }

      .cls-22 {
        fill: url(#linear-gradient-18);
      }

      .cls-23 {
        fill: url(#linear-gradient-10);
      }

      .cls-24 {
        fill: url(#linear-gradient-4);
      }
    </style>
    <linearGradient id="linear-gradient" x1="20.14" y1="47.99" x2="27.82" y2="47.99" gradientUnits="userSpaceOnUse">
      <stop offset="0" stop-color="#eb2027"/>
      <stop offset="1" stop-color="#a11a2f"/>
    </linearGradient>
    <linearGradient id="linear-gradient-2" x1="31.55" y1="204.57" x2="73.98" y2="204.57" xlink:href="#linear-gradient"/>
    <linearGradient id="linear-gradient-3" x1="42.15" y1="154.24" x2="150.27" y2="154.24" xlink:href="#linear-gradient"/>
    <linearGradient id="linear-gradient-4" x1="74.74" y1="205.73" x2="118.9" y2="205.73" xlink:href="#linear-gradient"/>
    <linearGradient id="linear-gradient-5" x1="163.69" y1="205.71" x2="204.76" y2="205.71" xlink:href="#linear-gradient"/>
    <linearGradient id="linear-gradient-6" x1="120.67" y1="205.72" x2="161.55" y2="205.72" xlink:href="#linear-gradient"/>
    <linearGradient id="linear-gradient-7" x1="121.81" y1="153.48" x2="202.79" y2="153.48" xlink:href="#linear-gradient"/>
    <linearGradient id="linear-gradient-8" x1="86.38" y1="70.97" x2="131.4" y2="70.97" xlink:href="#linear-gradient"/>
    <linearGradient id="linear-gradient-9" x1="86.56" y1="89.49" x2="139.9" y2="89.49" xlink:href="#linear-gradient"/>
    <linearGradient id="linear-gradient-10" x1="52" y1="142.49" x2="86.21" y2="142.49" xlink:href="#linear-gradient"/>
    <linearGradient id="linear-gradient-11" x1="125.13" y1="49.51" x2="134.69" y2="49.51" xlink:href="#linear-gradient"/>
    <linearGradient id="linear-gradient-12" x1="1" y1="121.85" x2="2.74" y2="121.85" xlink:href="#linear-gradient"/>
    <linearGradient id="linear-gradient-13" x1="121.25" y1="174.73" x2="164.74" y2="174.73" xlink:href="#linear-gradient"/>
    <linearGradient id="linear-gradient-14" x1="86.18" y1="97.84" x2="87.97" y2="97.84" xlink:href="#linear-gradient"/>
    <linearGradient id="linear-gradient-15" x1="136.31" y1="59" x2="136.35" y2="59" xlink:href="#linear-gradient"/>
    <linearGradient id="linear-gradient-16" x1="87.9" y1="102.45" x2="89.73" y2="102.45" xlink:href="#linear-gradient"/>
    <linearGradient id="linear-gradient-17" x1="55.39" y1="142.74" x2="89.77" y2="142.74" xlink:href="#linear-gradient"/>
    <linearGradient id="linear-gradient-18" x1="65.16" y1="159.06" x2="104.37" y2="159.06" xlink:href="#linear-gradient"/>
    <linearGradient id="linear-gradient-19" x1="58.16" y1="146.24" x2="98.45" y2="146.24" xlink:href="#linear-gradient"/>
    <linearGradient id="linear-gradient-20" x1="64.61" y1="155.04" x2="101.66" y2="155.04" xlink:href="#linear-gradient"/>
    <linearGradient id="linear-gradient-21" x1="58.78" y1="152.3" x2="94.46" y2="152.3" xlink:href="#linear-gradient"/>
    <linearGradient id="linear-gradient-22" x1="63.73" y1="136.4" x2="76.84" y2="136.4" xlink:href="#linear-gradient"/>
  </defs>
  <g id="Layer_1-2" data-name="Layer 1">
    <g class="cls-25">
      <path class="cls-4" d="M27.82,42.84c-.6,1.05-1.14,2.14-1.83,3.13-.82,1.18-1.98,2.16-2.62,3.41-.66,1.3-1.96,2.05-2.52,3.38-.08.19-.46.26-.71.38,2.56-3.43,5.12-6.87,7.68-10.3Z"/>
      <path class="cls-10" d="M92.4,28.56c-.84.06-1.23.34-.68,1.22.2.33.23.77.33,1.16-.86-1.41-1.72-2.83-2.58-4.24.14-.11.29-.22.43-.33.83.73,1.67,1.46,2.5,2.19Z"/>
      <path class="cls-16" d="M40.92,208.42v18.57h-9.37v-44.89c.59,0,1.15,0,1.71,0,6.9,0,13.81-.08,20.71.07,2.69.06,5.44.4,8.04,1.08,4.52,1.18,7.51,5.26,7.91,9.9.36,4.15-.52,7.81-3.74,10.65-1.94,1.71-4.3,2.56-6.79,3.12-.42.09-.83.21-1.42.37,7.66,4.69,10.74,12.8,16,19.76-4.01,0-7.53.03-11.04-.04-.38,0-.84-.55-1.12-.94-3.23-4.53-6.53-9.03-9.63-13.66-2.76-4.11-6.75-4.38-11.27-4ZM41.03,200.82c4.86,0,9.56.17,14.24-.06,3.36-.16,4.96-2.24,4.95-5.61,0-2.98-1.87-5.2-5-5.33-4.65-.19-9.31-.04-13.97-.02-.07,0-.14.12-.21.19v10.84Z"/>
      <path class="cls-18" d="M84.44,131.35c.05-.66.11-1.32.19-2.31,2.13,2.06,3.98,3.89,5.86,5.69,5.82,5.54,12.42,9.76,20.21,11.96,2.09.59,4.24,1.02,6.37,1.45.41.08.98-.09,1.32-.34,7.15-5.25,14.45-10.31,21.3-15.92,2.32-1.9,4.56-2.37,7.18-2.54,1-.07,2.02-.01,3.4-.01-1.52,1.7-2.8,3.25-4.2,4.69-6.68,6.91-14.25,12.71-22.31,17.91-7.93,5.11-16.22,9.57-24.75,13.56-10.19,4.78-20.65,8.9-31.28,12.6-2.98,1.04-5.9,1.5-9.08,1.3-5.47-.35-10.96-.3-16.5-.69,3.55-1.19,7.11-2.39,10.66-3.57,4.18-1.39,8.37-2.74,12.54-4.14,1.82-.61,1.95-1.45.68-3.01-3.14-3.82-6.25-7.65-9.35-11.51-.38-.47-.58-1.09-.86-1.64-.62-1.73-1.31-3.44-1.83-5.21-.62-2.11-1.1-4.26-1.62-6.39-.04-.17.05-.38.09-.57.15-.73.28-1.47.47-2.2.38-1.5.73-3.01,1.21-4.48.14-.44.72-.72.97-1.16.34-.58.56-1.24.83-1.87.38.46.52.88.46,1.27-.17,1.11.65,1.58,1.38,1.7,2.07.33,4.17.45,6.25.65,1.35.02,2.7.04,4.05.06.63.18,1.25.43,1.89.52,1.12.17,2.26.24,3.39.35-.93.27-1.89.08-2.74.3-3.33.87-6.62.65-9.96.09-1.18-.2-2.44.08-3.66.15-.82.32-1.67.65-1.6,1.74.11,1.71.99,2.77,3.11,2.83-1.4,1.37-3.38,2-2.54,4.11.37.93,1.05,1.61,2.19,1.55.01.6.02,1.2.03,1.8.2.92.39,1.84.59,2.76.34.23.65.58,1.02.67.57.14,1.18.09,1.96.13-.3.48-.41.76-.61.94-1.02.96-.85,3.06.41,3.49,1.15.39,2.4.49,3.6.72.02.3.17.8.05.88-1.04.68-.52,1.35-.05,2.03-.06.72.13,1.05.99,1.22,1.84.37,3.62,1,5.52,1.56-.29,1.02-.14,2.13,1.11,2.61,1.45.55,2.86,1.72,4.58.51.55-.39,1.34-.47,2.03-.62,1.43-.32,2.75-.83,3.83-1.84.25-.14.49-.3.75-.41,4.88-1.98,9.79-3.91,14.65-5.96,2.54-1.07,5-2.32,7.46-3.57.44-.22.86-.8.95-1.28.05-.28-.57-.99-.87-.98-.6.01-1.2.39-1.8.61h-2.12c.67-.75,1.07-1.19,1.7-1.88-.82-.6-1.55-1.13-2.29-1.65-.5-.61-.99-.64-1.73-.25-.69.37-1.38,1.41-2.25.57.27-.73.52-1.4.77-2.07-.02-.19.01-.51-.07-.55-1.06-.43-2.16-.76-3.2-1.23-.51-.23-1.08-.61-1.35-1.08-.74-1.29-1.54-2.37-3.21-2.42-.31,0-.61-.36-.92-.55.48-2.55-1.65-2.24-3.16-2.56,1.07-1.6,1-2.11-.34-3.29-.45-.32-.91-.64-1.45-1.03,1.79-1.57.15-2.04-.65-2.58.13-.64.24-1.13.34-1.63Z"/>
      <path class="cls-24" d="M117.99,195.73c-2.8.52-5.51,1.02-8.21,1.54-.76.15-1.1-.14-1.4-.84-1.73-4.05-4.95-5.91-9.24-6.14-3.18-.17-6.2.3-8.91,2.07-3.33,2.18-4.85,5.47-5.42,9.24-.56,3.68-.34,7.33.78,10.92,1.58,5.06,6.22,8.53,11.52,8.72,4.04.15,7.63-1.07,11.05-3.06.73-.43,1.16-.93,1.09-1.85-.08-1.11-.07-2.24,0-3.35.06-1-.29-1.36-1.32-1.34-2.58.06-5.15.01-7.73.01-.53,0-1.05,0-1.69,0v-7.39h20.37c0,.48,0,.94,0,1.41,0,5.06-.03,10.11.02,15.17.01,1.01-.36,1.62-1.14,2.16-5.24,3.59-11.02,5.6-17.37,5.95-5.75.31-11.22-.59-16.13-3.78-4.82-3.13-7.57-7.74-8.75-13.25-1.7-7.96-.74-15.48,4.58-21.97,3.4-4.15,7.99-6.44,13.26-7.13,5.34-.69,10.66-.55,15.73,1.62,4.57,1.96,7.45,5.43,8.86,10.16.06.18.08.38.09.57.01.14-.02.29-.04.55Z"/>
      <path class="cls-9" d="M204.76,214.37c-.91,3.57-2.46,6.69-5,9.26-4.19,4.25-9.48,5.44-15.21,5.29-9.12-.24-16.21-5.01-19.25-13.17-1.96-5.27-1.96-10.73-.93-16.22,1-5.37,3.52-9.82,7.99-13.05,3.18-2.3,6.75-3.48,10.66-3.84,3.98-.37,7.86-.08,11.57,1.43,5.19,2.11,8.55,5.9,10.03,11.57-.86.19-1.74.37-2.61.57-1.84.43-3.68.86-5.51,1.31-.73.18-1.21.16-1.55-.75-1.63-4.35-4.88-6.38-9.66-6.49-5.08-.12-8.97,3.04-10.37,6.61-1.43,3.66-1.65,7.48-1.27,11.33.21,2.1.58,4.25,1.3,6.22,1.66,4.55,5.51,6.85,10.76,6.77,4.04-.06,7.51-2.74,9.09-7.01.9-2.45.91-2.46,3.45-1.74,2.13.6,4.25,1.24,6.51,1.91Z"/>
      <path class="cls-6" d="M161.55,195.69c-2.85.65-5.48,1.29-8.13,1.81-.37.07-1.11-.32-1.26-.67-1.85-4.34-4.91-6.39-9.37-6.56-5.64-.21-9.43,3.08-10.7,6.52-2.15,5.81-2.12,11.74-.09,17.53,1.67,4.76,5.58,7.01,10.97,6.89,4.04-.09,7.53-2.93,9.12-7.42.22-.63.44-1.27.72-2.08,2.93.85,5.79,1.68,8.72,2.54-.04,3.04-1.54,5.39-3.16,7.6-3.72,5.07-9.02,6.85-15.08,7.08-10.23.38-18.45-4.92-21.22-14.43-2.3-7.9-1.93-15.8,2.61-22.97,3.5-5.52,8.84-8.22,15.28-8.87,4.32-.44,8.52-.06,12.51,1.75,4.28,1.95,7.23,5.14,8.75,9.6.17.49.21,1.02.33,1.67Z"/>
      <path class="cls-17" d="M121.85,174.01c5.98-4.21,12.16-8.17,17.89-12.7,9.47-7.48,16.5-17.01,21.78-27.85.3-.61.96-1.31,1.57-1.46,2.28-.56,3.07.3,2.69,2.62-.58,3.53-2.26,6.59-4.16,9.54-3.01,4.66-6.44,8.99-10.58,12.72-.17.16-.31.36-.63.73,17.53,4.72,34.91,9.39,52.36,14.09-.48,1.6-1.6,1.54-2.56,1.54-2.91,0-5.83-.03-8.74-.17-3.97-.2-7.96-.34-11.9-.84-5.86-.74-11.71-1.61-17.5-2.74-6.26-1.22-12.46-2.8-18.68-4.25-.88-.2-1.54-.09-2.22.58-1.26,1.25-2.62,2.39-4.19,3.81,8.82,1.51,17.24,2.94,25.67,4.38.32.29.64.57,1.09.98-.57.04-1.02.1-1.48.1-3.59.01-7.18.01-10.77.02-9.41,0-18.82.01-28.23.02-.75,0-1.69.21-1.43-1.1Z"/>
      <path class="cls-21" d="M92.4,28.56c3.65,2.88,7.67,5,12.16,6.3,2.03.59,3.97,1.53,5.9,2.43.86.4,1.65,1.02,2.36,1.67,1.37,1.25,1.43,2.5.3,3.97-3.42,4.44-7.57,5.75-12.85,3.96-.92-.31-1.45-.12-2.14.51-1.99,1.83-3.9,3.82-6.91,4.38.4.43.71.84,1.09,1.15,2.24,1.87,3.84,4.1,3.97,7.14.02.39.09.77.17,1.15.45,2.03,1.37,2.42,3.07,1.16,2.36-1.75,4.9-2.54,7.79-1.7,2.03.58,3.17,1.98,3.42,4.07.58,4.83-1.13,8.87-4.35,12.35-2.54,2.74-5.31,5.27-7.7,8.12-5.98,7.15-2.21,20.83,6.9,23.15,5.92,1.51,11.08-.16,15.39-4.25,5.27-4.99,6.88-11.41,6.5-18.45-.08-1.39-.33-2.78-.48-3.92-1.67,0-3.21.12-4.72-.03-2.22-.21-2.89-1.74-1.58-3.57.59-.82,1.28-1.64,2.11-2.19,1.61-1.06,2.26-2.58,2.6-4.35.11-.56.38-1.08.72-2.01.47.75.77,1.07.9,1.45,2.1,5.95,4.24,11.95,4.36,18.3.18,9.27-5.2,19.96-15.55,23.12-8.37,2.56-17.37-.52-21.58-7.51-4.14-6.87-2.95-17.52,2.65-23.33,2.42-2.51,4.97-4.89,7.37-7.41,1.5-1.57,2.47-3.47,2.78-5.65.23-1.64.23-3.28-1.25-4.37-1.44-1.07-3.08-.82-4.57-.12-1.35.63-2.56,1.58-3.9,2.24-1.73.84-3.1.62-3.74-.58-.38-.7-.7-1.57-.66-2.34.28-5.37-2.27-9.27-6.57-12.51,3.53-1.75,7.27-2.84,9.82-6.02-1.43-1.42-3.12-2.65-3-4.92.11-2.14,1.62-3.43,2.92-4.69-1.38-1.47-2.72-2.9-4.07-4.33-.11-.39-.13-.83-.33-1.16-.54-.88-.16-1.16.68-1.22ZM103.2,45.26c2.51-.22,4.82-.66,6.59-2.49.88-.92,1.01-2.31.08-2.79-2.25-1.17-4.55-2.32-6.96-3.1-1.67-.54-2.07.12-2,1.88.06,1.43.13,2.93-.23,4.28-.38,1.46-.5,1.6,1.06,1.96.52.12,1.04.18,1.46.25ZM96.21,39.51c.23.91.26,1.59.57,2.09.26.42.85.65,1.3.96.23-.43.61-.84.65-1.28.05-.6-.04-1.28-.29-1.82-.23-.49-.76-.83-1.16-1.24-.38.46-.76.92-1.06,1.29Z"/>
      <path class="cls-19" d="M89.73,105.09c2.14,4.16,4.94,7.73,9.01,10.19,7.69,4.65,18.21,3.88,25.24-1.75,5.85-4.69,9.56-10.61,10.8-18.01.75-4.46.41-8.94-.64-13.29-1.55-6.44-3.36-12.82-5.06-19.22-.13-.51-.2-1.04-.3-1.55-.35-2.32-.7-4.63-1.06-6.95l.46-.1c.43,1.63.74,3.3,1.31,4.87,1.25,3.42,2.61,6.79,3.98,10.16.26.65.79,1.18,1.2,1.77,2.37,5.59,4.27,11.31,4.97,17.37,1.26,10.91-2.42,20.17-9.76,28.02-4.88,5.23-11.15,7.9-18.3,7.97-10.89.1-20.85-6.44-24.24-17.21-.04-.13,0-.29-.01-.43-.01-.87.03-1.74-.04-2.6-.22-2.57-.49-5.14-.74-7.7.22-.02.43-.04.65-.06.05.67.03,1.36.16,2.01.09.43.39.82.6,1.23h-.01c-.25,2.04.26,3.83,1.77,5.28Z"/>
      <path class="cls-23" d="M57,138.05c1.22-.06,2.48-.35,3.66-.15,3.34.57,6.63.79,9.96-.09.85-.22,1.81-.03,2.74-.3-1.13-.11-2.26-.18-3.39-.35-.64-.09-1.26-.34-1.89-.52,2.5-.02,5-.03,7.5-.09.42-.01.84-.26,1.25-.39,2.01-.24,4.04-.4,6.03-.76.67-.12,1.24-.75,1.86-1.14-.7-.15-1.41-.43-2.11-.42-4.93.06-9.87.31-14.79.22-3.08-.06-6.15-.62-9.23-.94-.77-.08-1.63.05-1.51,1.03.06.47.72,1.13,1.21,1.23,1.79.37,3.63.53,5.44.77.1.14.2.28.3.42-2.09-.2-4.19-.32-6.25-.65-.73-.12-1.55-.59-1.38-1.7.06-.39-.08-.81-.46-1.27-.27.63-.49,1.28-.83,1.87-.25.43-.83.71-.97,1.16-.48,1.47-.83,2.98-1.21,4.48-.18.73-.31,1.46-.47,2.2-.04.19-.13.39-.09.57.52,2.14,1,4.29,1.62,6.39.52,1.76,1.21,3.47,1.83,5.21-5.36-8.44-5.43-17.86,1.99-24.68.57.4,1.07,1.02,1.65,1.1,5.52.81,11.06,1.41,16.66,1,2.03-.15,4.07-.19,6.1-.36.75-.06,1.48-.35,2.22-.54-.1.49-.21.99-.34,1.63.81.54,2.44,1.01.65,2.58.54.38,1,.7,1.45,1.03-.01.21-.02.41-.03.62-.52-.17-1.08-.54-1.57-.47-2.34.33-4.65.96-7,1.16-4.77.4-9.56.66-14.34.84-2.07.08-4.15-.19-6.23-.3-.01-.12-.02-.24-.03-.37Z"/>
      <path class="cls-8" d="M134.69,71.21c-.41-.59-.94-1.13-1.2-1.77-1.37-3.37-2.73-6.75-3.98-10.16-.57-1.57-.88-3.25-1.31-4.87l-.46.1c.35,2.32.7,4.63,1.06,6.95-.77-2.93-1.64-5.85-2.28-8.81-1.23-5.67-1.64-11.42-1.21-17.2.19-2.56.73-5.09,1.11-7.64.13.02.27.03.4.05,0,1.24-.02,2.49,0,3.73.08,4.71,0,9.42.32,14.11.37,5.29,1.98,10.34,3.79,15.31,1.24,3.41,2.51,6.81,3.76,10.21Z"/>
      <path class="cls-1" d="M1.55,105.8c.01,6.9-.07,13.81.08,20.71.05,2.34.75,4.67,1.02,7.02.16,1.44.06,2.91.07,4.37-.39-2.38-1-4.75-1.12-7.14-.32-6.44-.49-12.89-.59-19.34-.03-1.87.35-3.74.54-5.61Z"/>
      <path class="cls-11" d="M121.85,174.01c-.25,1.32.69,1.11,1.43,1.1,9.41,0,18.82-.01,28.23-.02,3.59,0,7.18,0,10.77-.02.46,0,.91-.06,1.48-.1-.45-.4-.77-.69-1.09-.98.69.28,1.38.55,2.07.83-.71.21-1.41.59-2.12.59-13.12.04-26.25.04-39.37.05-.44,0-.89.04-1.3-.07-.28-.08-.71-.42-.69-.59.04-.29.38-.53.6-.8Z"/>
      <path class="cls-15" d="M87.97,99.81c-.21-.41-.51-.8-.6-1.23-.13-.65-.12-1.34-.16-2.01-.22.02-.43.04-.65.06.25,2.57.52,5.13.74,7.7.07.86.03,1.73.04,2.6-.39-2.56-.88-5.1-1.12-7.67-.13-1.38.08-2.81.33-4.18.36-2.03.89-4.02,1.42-6.33v11.06Z"/>
      <g>
        <path class="cls-20" d="M141.7,123.97c-.73.8-1.49,1.64-2.22,2.44-.11-.04-.22-.11-.33-.15.58-2.55,1.13-5.13,1.78-7.68,1.86-7.68,3.24-15.43,3.6-23.36.44-9.53-1.71-18.56-5.02-27.4-.25-.76-.51-1.56-.76-2.33-.84-2.15-1.64-4.29-2.4-6.48v-.04h-.04c-.76-2.37-1.56-4.66-2.33-7.02-3.6-11.35-4.8-22.71-.18-34.06.55-1.35,1.24-2.62,1.86-3.93.25.36.51.73.76,1.09-2.51,8.04-3.97,16.19-2.26,24.63,1.75,7.31,5.13,13.97,8.33,20.67,3.75,7.79,7.31,15.61,9.21,24.09,3.31,14.88.15,28.09-10.01,39.52Z"/>
        <polygon class="cls-20" points="136.35 58.99 136.35 59.02 136.31 58.99 136.35 58.99"/>
        <path class="cls-20" d="M125.41,165.02c-6.29,3.33-12.42,6.62-18.61,9.8-.85.43-1.97.44-2.96.46-4.46.08-8.93.12-13.39.11-.46,0-.93-.43-1.39-.66.4-.38.74-.99,1.21-1.12,3.27-.85,6.61-1.41,9.83-2.4,6.68-2.05,12.89-5.22,18.93-8.71.84-.49,1.42-.49,2.21.03,1.32.87,2.72,1.63,4.18,2.49Z"/>
        <path class="cls-20" d="M123.39,159.76c2.3-1.61,4.36-2.89,6.23-4.4,3.44-2.77,6.8-5.62,10.11-8.54,1.04-.92,2.02-1.19,3.26-.69,1.23.5,2.45,1.03,3.89,1.63-.61.9-.97,1.58-1.47,2.13-4.29,4.76-9.29,8.64-14.75,11.95-.54.33-1.49.33-2.12.11-1.67-.58-3.26-1.37-5.15-2.19Z"/>
        <path class="cls-20" d="M157.31,133.29c-.4,2.9-1.76,5.13-3.26,7.27-3.28,4.68-3.3,4.67-8.78,3.33-.51-.13-1.03-.26-1.86-.48.5-.56.84-1.02,1.26-1.4,2.58-2.36,5.17-4.7,6.82-7.87.15-.29.64-.55,1-.58,1.54-.13,3.08-.18,4.83-.27Z"/>
        <path class="cls-20" d="M138.17,120.26h.04c-.4,1.6-.8,3.17-1.2,4.77-.18,3.13-1.42,5.49-4.66,6.55-1.78.58-3.49,1.38-5.24,2.07-3.06.8-6.08,1.6-9.13,2.37h-.11c-2.4.18-4.77.36-7.17.51-10.77-.55-19.8-4.58-26.38-13.35-1.31-1.75-2.26-3.78-3.38-5.68-1.96-3.6-2.73-7.53-3.13-11.54-.44-4.44-.33-8.92,1.09-13.21.36-.98.76-1.96,1.38-2.87-.07,1.46-.04,2.91-.22,4.33-1.2,8.22.69,15.57,5.75,22.12.07.15.15.29.22.4,2.73,3.38,5.75,6.4,9.75,8.3,12.59,5.89,29.07,4.62,39.15-6.95.07-.07.15-.11.25-.15,1.67-2.22,3.35-4.44,5.06-6.7.11.07.25.11.4.18-.84,2.95-1.64,5.89-2.47,8.84Z"/>
        <path class="cls-20" d="M228,142.68c-.23,1.53-.36,3.09-.72,4.59-.44,1.86-.97,3.71-1.62,5.52-.45,1.27-1.15,2.45-1.74,3.67,1.36-4.59,2.72-9.18,4.08-13.78Z"/>
      </g>
      <polygon class="cls-7" points="136.35 58.99 136.35 59.02 136.31 58.99 136.35 58.99"/>
      <path class="cls-12" d="M89.73,105.09c-1.51-1.45-2.02-3.24-1.77-5.28.59,1.76,1.18,3.52,1.77,5.28Z"/>
      <path class="cls-2" d="M86.17,137.2c.01-.21.02-.41.03-.62,1.33,1.19,1.41,1.69.34,3.29,1.51.32,3.63,0,3.16,2.56-.21-.01-.43-.02-.64-.03.49-1.16-.06-1.67-1.15-1.68-.56,0-1.14.16-1.69.35-8.99,3.02-18.22,4.07-27.66,3.37-.89-.07-1.94-.21-2.03,1-.08,1.06.2,2.19,1.66,2.22,3.29.07,6.6.31,9.87.1,3.32-.21,6.62-.86,9.93-1.31-.35.22-.67.51-1.05.63-.4.13-.87.05-1.29.13-1.75.34-3.48.81-5.24,1.03-2.52.31-5.12-.47-7.6.58-.37.15-.87.03-1.3-.02-1.12-.15-2.23-.34-3.35-.52-1.14.06-1.82-.62-2.19-1.55-.84-2.11,1.13-2.74,2.54-4.11-2.12-.06-3.01-1.12-3.11-2.83-.07-1.09.78-1.42,1.6-1.74.01.12.02.24.03.37-1.57,1.84-1.23,3.01,1.09,3.61.65.17,1.32.32,1.99.36,7.26.38,14.43-.42,21.53-1.82,1.79-.35,3.74-.58,5.07-2.12-.2-.47-.37-.86-.54-1.26Z"/>
      <path class="cls-22" d="M104.37,153.54c-3.49,1.75-6.9,3.69-10.49,5.21-6.48,2.74-13.2,4.73-20.2,5.71-.34.05-.7.06-.99.21-.27.14-.55.4-.64.67-.05.16.21.54.42.65,1.69.9,3.31,1.89,5.41.91,1.69-.79,3.56-1.2,5.35-1.77-1.08,1.02-2.4,1.53-3.83,1.84-.69.15-1.48.24-2.03.62-1.72,1.21-3.13.04-4.58-.51-1.26-.48-1.4-1.59-1.11-2.61-1.9-.55-3.69-1.18-5.52-1.56-.86-.17-1.05-.5-.99-1.22.3.04.59.07.89.11,1.04.44,2.06,1.2,3.13,1.26,1.87.1,3.79-.08,5.63-.41,6.85-1.23,13.37-3.58,19.73-6.35,2.57-1.12,5.03-2.49,7.48-3.85,1.11-.61,1.03-1.07-.05-1.74-.2-.12-.39-.26-.58-.4.09-.11.17-.21.26-.32.73.53,1.46,1.06,2.29,1.66-.63.69-1.02,1.13-1.7,1.88h2.12Z"/>
      <path class="cls-3" d="M89.06,142.4c.21.01.43.02.64.03.31.19.61.54.92.55,1.67.05,2.47,1.13,3.21,2.42.27.47.83.85,1.35,1.08,1.04.47,2.14.8,3.2,1.23.08.03.05.36.07.55-.21,0-.42.01-.63.02-1.02-.69-2.02-1.42-3.36-1.13-.45.1-.92.14-1.33.32-1.12.46-2.21.99-3.31,1.49-.07-.15-.14-.3-.21-.44.46-.29.95-.54,1.38-.87.74-.58,1.45-1.21,2.17-1.82-.37-1.82-1.51-2.45-3.12-1.67-8.43,4.07-17.32,6.08-26.69,5.86-1.06-.02-2.13-.22-3.19-.23-.65,0-1.31.19-1.97.29-.01-.6-.02-1.2-.03-1.8,1.11.18,2.23.36,3.35.52.43.06.93.18,1.3.02,2.48-1.04,5.08-.26,7.6-.58,1.76-.22,3.49-.69,5.24-1.03.42-.08.89,0,1.29-.13.38-.12.7-.41,1.05-.63,3.69-1.35,7.38-2.7,11.07-4.05Z"/>
      <path class="cls-14" d="M97.82,148.29c.21,0,.42-.01.63-.02-.25.67-.5,1.33-.77,2.07.87.83,1.56-.2,2.25-.57.74-.4,1.22-.36,1.73.25-.09.11-.17.21-.26.32-.96.31-2.02.45-2.88.95-9.74,5.66-20.31,8.25-31.49,8.69-.57.02-1.12.35-1.68.53.23.44.47.87.7,1.31-.3-.04-.59-.07-.89-.11-.48-.68-.99-1.35.05-2.03.12-.08-.03-.58-.05-.88.2-.19.4-.39.59-.58,6.46-.11,12.84-.89,18.95-2.99,3.91-1.35,7.67-3.13,11.46-4.81.83-.37,1.82-.85,1.65-2.11Z"/>
      <path class="cls-5" d="M65.76,158.2c-.2.19-.4.39-.59.58-1.21-.23-2.45-.33-3.6-.72-1.26-.43-1.44-2.53-.41-3.49.2-.18.31-.46.61-.94-.79-.04-1.4,0-1.96-.13-.37-.09-.68-.44-1.02-.67,11.45,1.41,22.24-.81,32.5-5.92.65-.32,1.25-.72,1.88-1.08-.72.61-1.43,1.24-2.17,1.82-.43.33-.92.58-1.38.87.07.15.14.3.21.44,1.1-.5,2.19-1.02,3.31-1.49.42-.17.89-.21,1.33-.32-2.72,1.36-5.36,2.91-8.17,4.05-7.52,3.05-15.43,3.9-23.48,3.82-.61,0-1.22.33-1.82.51.27.59.44,1.24.83,1.73.25.32.78.51,1.22.59.9.17,1.82.24,2.73.34Z"/>
      <path class="cls-13" d="M64.03,136.58c-.1-.14-.2-.28-.3-.42,4.37,0,8.74,0,13.11,0-.42.14-.83.38-1.25.39-2.5.06-5,.07-7.5.09-1.35-.02-2.7-.04-4.05-.06Z"/>
      <path class="cls-20" d="M23.21,175.49c-10.11-16.72-15.93-36.31-15.93-57.23C7.28,57.07,57.06,7.28,118.26,7.28s110.98,49.79,110.98,110.98c0,21.6-6.23,41.77-16.95,58.84l6.2,3.81c11.4-18.18,18.03-39.65,18.03-62.65C236.52,53.05,183.47,0,118.26,0S0,53.05,0,118.26c0,22.32,6.22,43.21,17.01,61.04l6.2-3.81Z"/>
    </g>
  </g>
</svg>